ffmpeg started on 2025-05-28 at 21:26:46
Report written to "D:\Convert\FFMetrics\reports\ssim_report-6.txt"
Log level: 32
Command line:
ffmpeg -hide_banner -nostdin -i "G:\\\xc0\xed\xe8\xec\xe5\\\xce\xed\xe3\xee\xe8\xed\xe3\xe8\\!_36_\xce\xf1\xe5\xed\xfc_2024\\JamClub\\\xcb\xfe\xe1\xee\xe2\xfc \xcc\xf3\xf0\xe0\xe8\\JamClub_Murai_no_Koi_04_1080p_HEVC.mkv" -i "G:\\\xc0\xed\xe8\xec\xe5\\\xce\xed\xe3\xee\xe8\xed\xe3\xe8\\!_36_\xce\xf1\xe5\xed\xfc_2024\\JamClub\\\xcb\xfe\xe1\xee\xe2\xfc \xcc\xf3\xf0\xe0\xe8\\JamClub_Murai_no_Koi_04_1080p.mp4" -lavfi "[0:v]settb=AVTB,setpts=PTS-STARTPTS,format=pix_fmts=yuv420p10,fps=24000/1001,scale=1920:1080:flags=bicubic[main];[1:v]settb=AVTB,setpts=PTS-STARTPTS,format=pix_fmts=yuv420p,fps=24000/1001,scale=1920:1080:flags=bicubic[ref];[main][ref]ssim=eof_action=endall:stats_file='D\\:/Convert/FFMetrics/logs/ssim_logfile-6.txt'" -f null -
Input #0, matroska,webm, from 'G:\Аниме\Онгоинги\!_36_Осень_2024\JamClub\Любовь Мураи\JamClub_Murai_no_Koi_04_1080p_HEVC.mkv':
  Metadata:
    COMPATIBLE_BRANDS: isomiso2avc1mp41
    MAJOR_BRAND     : isom
    MINOR_VERSION   : 512
    ENCODER         : Lavf61.7.100
  Duration: 00:24:04.16, start: -0.021000, bitrate: 1470 kb/s
  Stream #0:0: Video: hevc (Main 10), yuv420p10le(tv, bt709, progressive), 1920x1080 [SAR 1:1 DAR 16:9], 23.98 fps, 23.98 tbr, 1k tbn (default)
      Metadata:
        HANDLER_NAME    : VideoHandler
        VENDOR_ID       : [0][0][0][0]
        ENCODER         : Lavc61.19.100 libx265
        BPS             : 1271930
        DURATION        : 00:24:04.067708333
        NUMBER_OF_FRAMES: 34623
        NUMBER_OF_BYTES : 229594134
        _STATISTICS_WRITING_APP: mkvpropedit v66.0.0 ('Josie') 64-bit
        _STATISTICS_WRITING_DATE_UTC: 2025-05-28 12:20:58
        _STATISTICS_TAGS: BPS DURATION NUMBER_OF_FRAMES NUMBER_OF_BYTES
  Stream #0:1(eng): Audio: aac (LC), 48000 Hz, stereo, fltp (default)
      Metadata:
        HANDLER_NAME    : SoundHandler
        VENDOR_ID       : [0][0][0][0]
        ENCODER         : Lavc61.19.100 aac
        BPS             : 194392
        DURATION        : 00:24:04.141000000
        NUMBER_OF_FRAMES: 67695
        NUMBER_OF_BYTES : 35091258
        _STATISTICS_WRITING_APP: mkvpropedit v66.0.0 ('Josie') 64-bit
        _STATISTICS_WRITING_DATE_UTC: 2025-05-28 12:20:58
        _STATISTICS_TAGS: BPS DURATION NUMBER_OF_FRAMES NUMBER_OF_BYTES
Input #1, mov,mp4,m4a,3gp,3g2,mj2, from 'G:\Аниме\Онгоинги\!_36_Осень_2024\JamClub\Любовь Мураи\JamClub_Murai_no_Koi_04_1080p.mp4':
  Metadata:
    major_brand     : isom
    minor_version   : 512
    compatible_brands: isomiso2avc1mp41
    encoder         : Lavf60.16.100
  Duration: 00:24:04.14, start: 0.000000, bitrate: 4337 kb/s
  Stream #1:0[0x1](und): Video: h264 (High) (avc1 / 0x31637661), yuv420p(tv, bt709, progressive), 1920x1080 [SAR 1:1 DAR 16:9], 4139 kb/s, 23.98 fps, 23.98 tbr, 90k tbn (default)
      Metadata:
        handler_name    : VideoHandler
        vendor_id       : [0][0][0][0]
  Stream #1:1[0x2](eng): Audio: aac (LC) (mp4a / 0x6134706D), 48000 Hz, stereo, fltp, 191 kb/s (default)
      Metadata:
        handler_name    : SoundHandler
        vendor_id       : [0][0][0][0]
Stream mapping:
  Stream #0:0 (hevc) -> settb:default
  Stream #1:0 (h264) -> settb:default
  ssim:default -> Stream #0:0 (wrapped_avframe)
  Stream #0:1 -> #0:1 (aac (native) -> pcm_s16le (native))
Output #0, null, to 'pipe:':
  Metadata:
    COMPATIBLE_BRANDS: isomiso2avc1mp41
    MAJOR_BRAND     : isom
    MINOR_VERSION   : 512
    encoder         : Lavf61.7.100
  Stream #0:0: Video: wrapped_avframe, yuv420p10le(tv, bt709, progressive), 1920x1080 [SAR 1:1 DAR 16:9], q=2-31, 200 kb/s, 23.98 fps, 23.98 tbn
      Metadata:
        encoder         : Lavc61.19.100 wrapped_avframe
  Stream #0:1(eng): Audio: pcm_s16le, 48000 Hz, stereo, s16, 1536 kb/s (default)
      Metadata:
        HANDLER_NAME    : SoundHandler
        VENDOR_ID       : [0][0][0][0]
        _STATISTICS_TAGS: BPS DURATION NUMBER_OF_FRAMES NUMBER_OF_BYTES
        BPS             : 194392
        DURATION        : 00:24:04.141000000
        NUMBER_OF_FRAMES: 67695
        NUMBER_OF_BYTES : 35091258
        _STATISTICS_WRITING_APP: mkvpropedit v66.0.0 ('Josie') 64-bit
        _STATISTICS_WRITING_DATE_UTC: 2025-05-28 12:20:58
        encoder         : Lavc61.19.100 pcm_s16le
frame=  119 fps=0.0 q=-0.0 size=N/A time=00:00:04.96 bitrate=N/A speed=9.61x    frame=  285 fps=279 q=-0.0 size=N/A time=00:00:11.88 bitrate=N/A speed=11.6x    frame=  497 fps=322 q=-0.0 size=N/A time=00:00:20.72 bitrate=N/A speed=13.4x    frame=  678 fps=330 q=-0.0 size=N/A time=00:00:28.27 bitrate=N/A speed=13.8x    frame=  840 fps=327 q=-0.0 size=N/A time=00:00:35.03 bitrate=N/A speed=13.6x    frame=  982 fps=319 q=-0.0 size=N/A time=00:00:40.95 bitrate=N/A speed=13.3x    frame= 1147 fps=318 q=-0.0 size=N/A time=00:00:47.83 bitrate=N/A speed=13.3x    frame= 1354 fps=328 q=-0.0 size=N/A time=00:00:56.47 bitrate=N/A speed=13.7x    frame= 1492 fps=322 q=-0.0 size=N/A time=00:01:02.22 bitrate=N/A speed=13.4x    frame= 1707 fps=332 q=-0.0 size=N/A time=00:01:11.19 bitrate=N/A speed=13.8x    frame= 1871 fps=331 q=-0.0 size=N/A time=00:01:18.03 bitrate=N/A speed=13.8x    frame= 2017 fps=326 q=-0.0 size=N/A time=00:01:24.12 bitrate=N/A speed=13.6x    frame= 2166 fps=323 q=-0.0 size=N/A time=00:01:30.34 bitrate=N/A speed=13.5x    frame= 2352 fps=326 q=-0.0 size=N/A time=00:01:38.09 bitrate=N/A speed=13.6x    frame= 2545 fps=329 q=-0.0 size=N/A time=00:01:46.14 bitrate=N/A speed=13.7x    frame= 2773 fps=336 q=-0.0 size=N/A time=00:01:55.65 bitrate=N/A speed=  14x    frame= 3036 fps=346 q=-0.0 size=N/A time=00:02:06.62 bitrate=N/A speed=14.4x    frame= 3310 fps=357 q=-0.0 size=N/A time=00:02:18.05 bitrate=N/A speed=14.9x    frame= 3553 fps=363 q=-0.0 size=N/A time=00:02:28.18 bitrate=N/A speed=15.1x    frame= 3768 fps=365 q=-0.0 size=N/A time=00:02:37.15 bitrate=N/A speed=15.2x    frame= 4014 fps=371 q=-0.0 size=N/A time=00:02:47.41 bitrate=N/A speed=15.5x    frame= 4189 fps=370 q=-0.0 size=N/A time=00:02:54.71 bitrate=N/A speed=15.4x    frame= 4359 fps=368 q=-0.0 size=N/A time=00:03:01.80 bitrate=N/A speed=15.3x    frame= 4557 fps=369 q=-0.0 size=N/A time=00:03:10.06 bitrate=N/A speed=15.4x    frame= 4786 fps=371 q=-0.0 size=N/A time=00:03:19.61 bitrate=N/A speed=15.5x    frame= 5018 fps=374 q=-0.0 size=N/A time=00:03:29.29 bitrate=N/A speed=15.6x    frame= 5226 fps=375 q=-0.0 size=N/A time=00:03:37.96 bitrate=N/A speed=15.7x    frame= 5479 fps=380 q=-0.0 size=N/A time=00:03:48.51 bitrate=N/A speed=15.8x    frame= 5734 fps=383 q=-0.0 size=N/A time=00:03:59.15 bitrate=N/A speed=  16x    frame= 6000 fps=388 q=-0.0 size=N/A time=00:04:10.25 bitrate=N/A speed=16.2x    frame= 6265 fps=392 q=-0.0 size=N/A time=00:04:21.30 bitrate=N/A speed=16.3x    frame= 6509 fps=395 q=-0.0 size=N/A time=00:04:31.47 bitrate=N/A speed=16.5x    frame= 6753 fps=397 q=-0.0 size=N/A time=00:04:41.65 bitrate=N/A speed=16.6x    frame= 7017 fps=401 q=-0.0 size=N/A time=00:04:52.66 bitrate=N/A speed=16.7x    frame= 7232 fps=401 q=-0.0 size=N/A time=00:05:01.63 bitrate=N/A speed=16.7x    frame= 7457 fps=402 q=-0.0 size=N/A time=00:05:11.01 bitrate=N/A speed=16.8x    frame= 7731 fps=405 q=-0.0 size=N/A time=00:05:22.44 bitrate=N/A speed=16.9x    frame= 7973 fps=407 q=-0.0 size=N/A time=00:05:32.54 bitrate=N/A speed=  17x    frame= 8242 fps=410 q=-0.0 size=N/A time=00:05:43.76 bitrate=N/A speed=17.1x    frame= 8506 fps=412 q=-0.0 size=N/A time=00:05:54.77 bitrate=N/A speed=17.2x    frame= 8758 fps=414 q=-0.0 size=N/A time=00:06:05.28 bitrate=N/A speed=17.3x    frame= 8995 fps=415 q=-0.0 size=N/A time=00:06:15.16 bitrate=N/A speed=17.3x    frame= 9236 fps=416 q=-0.0 size=N/A time=00:06:25.21 bitrate=N/A speed=17.4x    frame= 9460 fps=417 q=-0.0 size=N/A time=00:06:34.56 bitrate=N/A speed=17.4x    frame= 9692 fps=418 q=-0.0 size=N/A time=00:06:44.23 bitrate=N/A speed=17.4x    frame= 9935 fps=419 q=-0.0 size=N/A time=00:06:54.37 bitrate=N/A speed=17.5x    frame=10183 fps=420 q=-0.0 size=N/A time=00:07:04.71 bitrate=N/A speed=17.5x    frame=10453 fps=422 q=-0.0 size=N/A time=00:07:15.97 bitrate=N/A speed=17.6x    frame=10673 fps=422 q=-0.0 size=N/A time=00:07:25.15 bitrate=N/A speed=17.6x    frame=10892 fps=422 q=-0.0 size=N/A time=00:07:34.28 bitrate=N/A speed=17.6x    frame=11096 fps=421 q=-0.0 size=N/A time=00:07:42.79 bitrate=N/A speed=17.6x    frame=11322 fps=422 q=-0.0 size=N/A time=00:07:52.22 bitrate=N/A speed=17.6x    frame=11521 fps=421 q=-0.0 size=N/A time=00:08:00.52 bitrate=N/A speed=17.6x    frame=11761 fps=422 q=-0.0 size=N/A time=00:08:10.53 bitrate=N/A speed=17.6x    frame=11985 fps=422 q=-0.0 size=N/A time=00:08:19.87 bitrate=N/A speed=17.6x    frame=12216 fps=423 q=-0.0 size=N/A time=00:08:29.50 bitrate=N/A speed=17.6x    frame=12483 fps=424 q=-0.0 size=N/A time=00:08:40.64 bitrate=N/A speed=17.7x    frame=12708 fps=425 q=-0.0 size=N/A time=00:08:50.02 bitrate=N/A speed=17.7x    frame=12911 fps=424 q=-0.0 size=N/A time=00:08:58.49 bitrate=N/A speed=17.7x    frame=13176 fps=426 q=-0.0 size=N/A time=00:09:09.54 bitrate=N/A speed=17.8x    frame=13438 fps=427 q=-0.0 size=N/A time=00:09:20.47 bitrate=N/A speed=17.8x    frame=13681 fps=428 q=-0.0 size=N/A time=00:09:30.61 bitrate=N/A speed=17.8x    frame=13914 fps=428 q=-0.0 size=N/A time=00:09:40.32 bitrate=N/A speed=17.9x    frame=14184 fps=430 q=-0.0 size=N/A time=00:09:51.59 bitrate=N/A speed=17.9x    frame=14388 fps=429 q=-0.0 size=N/A time=00:10:00.09 bitrate=N/A speed=17.9x    frame=14619 fps=429 q=-0.0 size=N/A time=00:10:09.73 bitrate=N/A speed=17.9x    frame=14863 fps=430 q=-0.0 size=N/A time=00:10:19.91 bitrate=N/A speed=17.9x    frame=15109 fps=431 q=-0.0 size=N/A time=00:10:30.17 bitrate=N/A speed=  18x    frame=15374 fps=432 q=-0.0 size=N/A time=00:10:41.22 bitrate=N/A speed=  18x    frame=15657 fps=433 q=-0.0 size=N/A time=00:10:53.02 bitrate=N/A speed=18.1x    frame=15876 fps=433 q=-0.0 size=N/A time=00:11:02.16 bitrate=N/A speed=18.1x    frame=16142 fps=434 q=-0.0 size=N/A time=00:11:13.25 bitrate=N/A speed=18.1x    frame=16380 fps=435 q=-0.0 size=N/A time=00:11:23.18 bitrate=N/A speed=18.1x    frame=16674 fps=437 q=-0.0 size=N/A time=00:11:35.44 bitrate=N/A speed=18.2x    frame=16941 fps=438 q=-0.0 size=N/A time=00:11:46.58 bitrate=N/A speed=18.3x    frame=17169 fps=438 q=-0.0 size=N/A time=00:11:56.09 bitrate=N/A speed=18.3x    frame=17432 fps=439 q=-0.0 size=N/A time=00:12:07.05 bitrate=N/A speed=18.3x    frame=17698 fps=440 q=-0.0 size=N/A time=00:12:18.15 bitrate=N/A speed=18.3x    frame=17942 fps=440 q=-0.0 size=N/A time=00:12:28.33 bitrate=N/A speed=18.4x    frame=18198 fps=441 q=-0.0 size=N/A time=00:12:39.00 bitrate=N/A speed=18.4x    frame=18448 fps=441 q=-0.0 size=N/A time=00:12:49.43 bitrate=N/A speed=18.4x    frame=18686 fps=442 q=-0.0 size=N/A time=00:12:59.36 bitrate=N/A speed=18.4x    frame=18938 fps=442 q=-0.0 size=N/A time=00:13:09.87 bitrate=N/A speed=18.4x    frame=19178 fps=442 q=-0.0 size=N/A time=00:13:19.88 bitrate=N/A speed=18.5x    frame=19440 fps=443 q=-0.0 size=N/A time=00:13:30.81 bitrate=N/A speed=18.5x    frame=19703 fps=444 q=-0.0 size=N/A time=00:13:41.77 bitrate=N/A speed=18.5x    frame=19952 fps=445 q=-0.0 size=N/A time=00:13:52.16 bitrate=N/A speed=18.5x    frame=20205 fps=445 q=-0.0 size=N/A time=00:14:02.71 bitrate=N/A speed=18.6x    frame=20476 fps=446 q=-0.0 size=N/A time=00:14:14.01 bitrate=N/A speed=18.6x    frame=20713 fps=446 q=-0.0 size=N/A time=00:14:23.90 bitrate=N/A speed=18.6x    frame=20967 fps=447 q=-0.0 size=N/A time=00:14:34.49 bitrate=N/A speed=18.6x    frame=21188 fps=446 q=-0.0 size=N/A time=00:14:43.71 bitrate=N/A speed=18.6x    frame=21446 fps=447 q=-0.0 size=N/A time=00:14:54.47 bitrate=N/A speed=18.6x    frame=21682 fps=447 q=-0.0 size=N/A time=00:15:04.32 bitrate=N/A speed=18.6x    frame=21947 fps=448 q=-0.0 size=N/A time=00:15:15.37 bitrate=N/A speed=18.7x    frame=22222 fps=449 q=-0.0 size=N/A time=00:15:26.84 bitrate=N/A speed=18.7x    frame=22486 fps=449 q=-0.0 size=N/A time=00:15:37.85 bitrate=N/A speed=18.7x    frame=22724 fps=449 q=-0.0 size=N/A time=00:15:47.78 bitrate=N/A speed=18.7x    frame=22989 fps=450 q=-0.0 size=N/A time=00:15:58.83 bitrate=N/A speed=18.8x    frame=23251 fps=451 q=-0.0 size=N/A time=00:16:09.76 bitrate=N/A speed=18.8x    frame=23506 fps=451 q=-0.0 size=N/A time=00:16:20.39 bitrate=N/A speed=18.8x    frame=23759 fps=451 q=-0.0 size=N/A time=00:16:30.94 bitrate=N/A speed=18.8x    frame=23960 fps=451 q=-0.0 size=N/A time=00:16:39.33 bitrate=N/A speed=18.8x    frame=24248 fps=452 q=-0.0 size=N/A time=00:16:51.34 bitrate=N/A speed=18.8x    frame=24512 fps=452 q=-0.0 size=N/A time=00:17:02.35 bitrate=N/A speed=18.9x    frame=24740 fps=452 q=-0.0 size=N/A time=00:17:11.86 bitrate=N/A speed=18.9x    frame=25003 fps=453 q=-0.0 size=N/A time=00:17:22.83 bitrate=N/A speed=18.9x    frame=25262 fps=453 q=-0.0 size=N/A time=00:17:33.63 bitrate=N/A speed=18.9x    frame=25489 fps=453 q=-0.0 size=N/A time=00:17:43.10 bitrate=N/A speed=18.9x    frame=25717 fps=453 q=-0.0 size=N/A time=00:17:52.61 bitrate=N/A speed=18.9x    frame=25964 fps=453 q=-0.0 size=N/A time=00:18:02.91 bitrate=N/A speed=18.9x    frame=26195 fps=453 q=-0.0 size=N/A time=00:18:12.54 bitrate=N/A speed=18.9x    frame=26407 fps=453 q=-0.0 size=N/A time=00:18:21.39 bitrate=N/A speed=18.9x    frame=26626 fps=453 q=-0.0 size=N/A time=00:18:30.52 bitrate=N/A speed=18.9x    frame=26806 fps=452 q=-0.0 size=N/A time=00:18:38.03 bitrate=N/A speed=18.8x    frame=27083 fps=452 q=-0.0 size=N/A time=00:18:49.58 bitrate=N/A speed=18.9x    frame=27294 fps=452 q=-0.0 size=N/A time=00:18:58.38 bitrate=N/A speed=18.9x    frame=27517 fps=452 q=-0.0 size=N/A time=00:19:07.68 bitrate=N/A speed=18.8x    frame=27755 fps=452 q=-0.0 size=N/A time=00:19:17.61 bitrate=N/A speed=18.8x    frame=27996 fps=452 q=-0.0 size=N/A time=00:19:27.66 bitrate=N/A speed=18.9x    frame=28226 fps=452 q=-0.0 size=N/A time=00:19:37.25 bitrate=N/A speed=18.9x    frame=28472 fps=452 q=-0.0 size=N/A time=00:19:47.51 bitrate=N/A speed=18.9x    frame=28649 fps=451 q=-0.0 size=N/A time=00:19:54.90 bitrate=N/A speed=18.8x    frame=28868 fps=451 q=-0.0 size=N/A time=00:20:04.03 bitrate=N/A speed=18.8x    frame=29112 fps=451 q=-0.0 size=N/A time=00:20:14.21 bitrate=N/A speed=18.8x    frame=29346 fps=451 q=-0.0 size=N/A time=00:20:23.97 bitrate=N/A speed=18.8x    frame=29615 fps=452 q=-0.0 size=N/A time=00:20:35.19 bitrate=N/A speed=18.8x    frame=29862 fps=452 q=-0.0 size=N/A time=00:20:45.49 bitrate=N/A speed=18.9x    frame=30091 fps=452 q=-0.0 size=N/A time=00:20:55.04 bitrate=N/A speed=18.9x    frame=30351 fps=452 q=-0.0 size=N/A time=00:21:05.88 bitrate=N/A speed=18.9x    frame=30594 fps=453 q=-0.0 size=N/A time=00:21:16.02 bitrate=N/A speed=18.9x    frame=30858 fps=453 q=-0.0 size=N/A time=00:21:27.03 bitrate=N/A speed=18.9x    frame=31079 fps=453 q=-0.0 size=N/A time=00:21:36.25 bitrate=N/A speed=18.9x    frame=31324 fps=453 q=-0.0 size=N/A time=00:21:46.47 bitrate=N/A speed=18.9x    frame=31589 fps=453 q=-0.0 size=N/A time=00:21:57.52 bitrate=N/A speed=18.9x    frame=31853 fps=454 q=-0.0 size=N/A time=00:22:08.53 bitrate=N/A speed=18.9x    frame=32126 fps=454 q=-0.0 size=N/A time=00:22:19.92 bitrate=N/A speed=  19x    frame=32352 fps=454 q=-0.0 size=N/A time=00:22:29.34 bitrate=N/A speed=18.9x    frame=32550 fps=454 q=-0.0 size=N/A time=00:22:37.60 bitrate=N/A speed=18.9x    frame=32731 fps=453 q=-0.0 size=N/A time=00:22:45.15 bitrate=N/A speed=18.9x    frame=32957 fps=453 q=-0.0 size=N/A time=00:22:54.58 bitrate=N/A speed=18.9x    frame=33159 fps=453 q=-0.0 size=N/A time=00:23:03.00 bitrate=N/A speed=18.9x    frame=33343 fps=452 q=-0.0 size=N/A time=00:23:10.68 bitrate=N/A speed=18.8x    frame=33525 fps=451 q=-0.0 size=N/A time=00:23:18.27 bitrate=N/A speed=18.8x    frame=33720 fps=451 q=-0.0 size=N/A time=00:23:26.40 bitrate=N/A speed=18.8x    frame=33894 fps=450 q=-0.0 size=N/A time=00:23:33.66 bitrate=N/A speed=18.8x    frame=34061 fps=449 q=-0.0 size=N/A time=00:23:40.62 bitrate=N/A speed=18.7x    frame=34215 fps=448 q=-0.0 size=N/A time=00:23:47.05 bitrate=N/A speed=18.7x    frame=34357 fps=447 q=-0.0 size=N/A time=00:23:52.97 bitrate=N/A speed=18.6x    frame=34560 fps=446 q=-0.0 size=N/A time=00:24:01.44 bitrate=N/A speed=18.6x    [Parsed_ssim_10 @ 0000021332367c80] SSIM Y:0.992675 (21.351976) U:0.993714 (22.016483) V:0.993797 (22.073904) All:0.993035 (21.570952)
[out#0/null @ 0000021331c406c0] video:14877KiB audio:270780KiB subtitle:0KiB other streams:0KiB global headers:0KiB muxing overhead: unknown
frame=34623 fps=447 q=-0.0 Lsize=N/A time=00:24:04.06 bitrate=N/A speed=18.6x    
